<mxfile host="app.diagrams.net" agent="Mozilla/5.0 (Windows NT 10.0; Win64; x64) AppleWebKit/537.36 (KHTML, like Gecko) Chrome/130.0.0.0 Safari/537.36" version="24.8.3">
  <diagram name="Page-1" id="R3L6VF8sXFzHldwDkmjj">
    <mxGraphModel dx="1434" dy="784" grid="1" gridSize="10" guides="1" tooltips="1" connect="1" arrows="1" fold="1" page="1" pageScale="1" pageWidth="850" pageHeight="1100" math="0" shadow="0">
      <root>
        <mxCell id="0" />
        <mxCell id="1" parent="0" />
        <mxCell id="MRv-yQlPlGEjk9SDaC7J-5" style="edgeStyle=orthogonalEdgeStyle;rounded=0;orthogonalLoop=1;jettySize=auto;html=1;exitX=0.5;exitY=1;exitDx=0;exitDy=0;entryX=0.5;entryY=0;entryDx=0;entryDy=0;" edge="1" parent="1" source="MRv-yQlPlGEjk9SDaC7J-1" target="MRv-yQlPlGEjk9SDaC7J-2">
          <mxGeometry relative="1" as="geometry" />
        </mxCell>
        <mxCell id="MRv-yQlPlGEjk9SDaC7J-1" value="Aloitus" style="ellipse;whiteSpace=wrap;html=1;" vertex="1" parent="1">
          <mxGeometry x="365" y="40" width="120" height="80" as="geometry" />
        </mxCell>
        <mxCell id="MRv-yQlPlGEjk9SDaC7J-7" style="edgeStyle=orthogonalEdgeStyle;rounded=0;orthogonalLoop=1;jettySize=auto;html=1;exitX=0.5;exitY=1;exitDx=0;exitDy=0;entryX=0.5;entryY=0;entryDx=0;entryDy=0;" edge="1" parent="1" source="MRv-yQlPlGEjk9SDaC7J-2" target="MRv-yQlPlGEjk9SDaC7J-3">
          <mxGeometry relative="1" as="geometry" />
        </mxCell>
        <mxCell id="MRv-yQlPlGEjk9SDaC7J-2" value="Syötä kolme nro &lt;br&gt;var l1, l2, l3" style="shape=parallelogram;perimeter=parallelogramPerimeter;whiteSpace=wrap;html=1;fixedSize=1;" vertex="1" parent="1">
          <mxGeometry x="365" y="160" width="120" height="60" as="geometry" />
        </mxCell>
        <mxCell id="MRv-yQlPlGEjk9SDaC7J-8" style="edgeStyle=orthogonalEdgeStyle;rounded=0;orthogonalLoop=1;jettySize=auto;html=1;exitX=0.5;exitY=1;exitDx=0;exitDy=0;" edge="1" parent="1" source="MRv-yQlPlGEjk9SDaC7J-3" target="MRv-yQlPlGEjk9SDaC7J-6">
          <mxGeometry relative="1" as="geometry" />
        </mxCell>
        <mxCell id="MRv-yQlPlGEjk9SDaC7J-3" value="pyydä luvut l1, l2, l3 ja taulukko (l1, l2, l3)" style="rounded=0;whiteSpace=wrap;html=1;" vertex="1" parent="1">
          <mxGeometry x="365" y="260" width="120" height="60" as="geometry" />
        </mxCell>
        <mxCell id="MRv-yQlPlGEjk9SDaC7J-10" style="edgeStyle=orthogonalEdgeStyle;rounded=0;orthogonalLoop=1;jettySize=auto;html=1;exitX=0.5;exitY=1;exitDx=0;exitDy=0;entryX=0.5;entryY=0;entryDx=0;entryDy=0;" edge="1" parent="1" source="MRv-yQlPlGEjk9SDaC7J-6" target="MRv-yQlPlGEjk9SDaC7J-9">
          <mxGeometry relative="1" as="geometry" />
        </mxCell>
        <mxCell id="MRv-yQlPlGEjk9SDaC7J-6" value="Järjestä taulukko" style="rounded=0;whiteSpace=wrap;html=1;" vertex="1" parent="1">
          <mxGeometry x="365" y="360" width="120" height="60" as="geometry" />
        </mxCell>
        <mxCell id="MRv-yQlPlGEjk9SDaC7J-12" style="edgeStyle=orthogonalEdgeStyle;rounded=0;orthogonalLoop=1;jettySize=auto;html=1;exitX=0.5;exitY=1;exitDx=0;exitDy=0;entryX=0.5;entryY=0;entryDx=0;entryDy=0;" edge="1" parent="1" source="MRv-yQlPlGEjk9SDaC7J-9" target="MRv-yQlPlGEjk9SDaC7J-11">
          <mxGeometry relative="1" as="geometry" />
        </mxCell>
        <mxCell id="MRv-yQlPlGEjk9SDaC7J-9" value="Tulosta lajitellut numerot l1, l2, l3" style="shape=parallelogram;perimeter=parallelogramPerimeter;whiteSpace=wrap;html=1;fixedSize=1;" vertex="1" parent="1">
          <mxGeometry x="365" y="460" width="120" height="60" as="geometry" />
        </mxCell>
        <mxCell id="MRv-yQlPlGEjk9SDaC7J-11" value="Lopetus" style="ellipse;whiteSpace=wrap;html=1;" vertex="1" parent="1">
          <mxGeometry x="365" y="560" width="120" height="80" as="geometry" />
        </mxCell>
      </root>
    </mxGraphModel>
  </diagram>
</mxfile>
